{
    "asset" : {
        "generator" : "Khronos glTF Blender I/O v1.6.16",
        "version" : "2.0"
    },
    "scene" : 0,
    "scenes" : [
        {
            "name" : "Scene",
            "nodes" : [
                12
            ]
        }
    ],
    "nodes" : [
        {
            "mesh" : 0,
            "name" : "Back",
            "translation" : [
                -1202.53125,
                0,
                -2704.025390625
            ]
        },
        {
            "mesh" : 1,
            "name" : "Bottom_2",
            "rotation" : [
                -3.163260771543719e-05,
                0.7071067094802856,
                -0.7071068286895752,
                3.169443516526371e-05
            ],
            "translation" : [
                -432.68511962890625,
                2100.83837890625,
                -6.598841667175293
            ]
        },
        {
            "children" : [
                1
            ],
            "name" : "Bottom",
            "rotation" : [
                3.1663523259339854e-05,
                -0.7071067094802856,
                0.7071068286895752,
                3.166351962136105e-05
            ],
            "translation" : [
                -1635.028076171875,
                -6.598841667175293,
                -603.1483154296875
            ]
        },
        {
            "mesh" : 2,
            "name" : "Feet_2",
            "rotation" : [
                -3.16944278893061e-05,
                0.7071067094802856,
                -0.7071068286895752,
                3.16326149913948e-05
            ],
            "translation" : [
                -432.68511962890625,
                2100.83837890625,
                -6.598841667175293
            ]
        },
        {
            "mesh" : 3,
            "name" : "Feet_3",
            "rotation" : [
                -3.16944278893061e-05,
                0.7071067094802856,
                -0.7071068286895752,
                3.16326149913948e-05
            ],
            "translation" : [
                -432.68511962890625,
                2100.83837890625,
                -6.598841667175293
            ]
        },
        {
            "children" : [
                4
            ],
            "name" : "Subdivision_Surface_1"
        },
        {
            "children" : [
                3,
                5
            ],
            "name" : "Feet",
            "rotation" : [
                3.1663523259339854e-05,
                -0.7071067094802856,
                0.7071068286895752,
                3.166351962136105e-05
            ],
            "translation" : [
                -1635.028076171875,
                -6.598841667175293,
                -603.1483154296875
            ]
        },
        {
            "mesh" : 4,
            "name" : "Frame",
            "translation" : [
                -1202.53125,
                0,
                -2704.025390625
            ]
        },
        {
            "mesh" : 5,
            "name" : "Pillow_1_2",
            "translation" : [
                -0.6149781346321106,
                0.5197616815567017,
                -32.055824279785156
            ]
        },
        {
            "children" : [
                8
            ],
            "name" : "Pillow_1",
            "rotation" : [
                -0.16583819687366486,
                -0.7855827212333679,
                -0.48549598455429077,
                0.3459062874317169
            ],
            "translation" : [
                -838.571533203125,
                640.4850463867188,
                -395.9657897949219
            ]
        },
        {
            "mesh" : 6,
            "name" : "Pillow_2_",
            "translation" : [
                0.5437988042831421,
                0.3247399628162384,
                -31.914825439453125
            ]
        },
        {
            "children" : [
                10
            ],
            "name" : "Pillow_2",
            "rotation" : [
                -0.13323596119880676,
                0.8014670014381409,
                0.5180928111076355,
                0.2673550248146057
            ],
            "translation" : [
                527.6201782226562,
                644.10546875,
                -401.7708740234375
            ]
        },
        {
            "children" : [
                0,
                2,
                6,
                7,
                9,
                11
            ],
            "name" : "Sofa",
            "rotation" : [
                0,
                -0.7019644975662231,
                0,
                0.7122119665145874
            ],
            "scale" : [
                0.009999998845160007,
                0.009999999776482582,
                0.009999998845160007
            ],
            "translation" : [
                2.7318930625915527,
                -1.0459048748016357,
                -4.873969554901123
            ]
        }
    ],
    "materials" : [
        {
            "doubleSided" : true,
            "name" : "Mat.1.3",
            "pbrMetallicRoughness" : {
                "baseColorFactor" : [
                    0.800000011920929,
                    0.800000011920929,
                    0.800000011920929,
                    1
                ],
                "metallicFactor" : 0,
                "roughnessFactor" : 0.4343145787715912
            }
        },
        {
            "doubleSided" : true,
            "name" : "Mat.1.2",
            "pbrMetallicRoughness" : {
                "baseColorFactor" : [
                    0.800000011920929,
                    0.800000011920929,
                    0.800000011920929,
                    1
                ],
                "metallicFactor" : 0,
                "roughnessFactor" : 0.4343145787715912
            }
        },
        {
            "doubleSided" : true,
            "name" : "alpolish",
            "pbrMetallicRoughness" : {
                "baseColorFactor" : [
                    0,
                    0,
                    0,
                    1
                ],
                "roughnessFactor" : 0
            }
        },
        {
            "doubleSided" : true,
            "name" : "Mat.1.4",
            "pbrMetallicRoughness" : {
                "baseColorFactor" : [
                    0.800000011920929,
                    0.800000011920929,
                    0.800000011920929,
                    1
                ],
                "metallicFactor" : 0,
                "roughnessFactor" : 0.4343145787715912
            }
        },
        {
            "doubleSided" : true,
            "name" : "Mat.1",
            "pbrMetallicRoughness" : {
                "baseColorFactor" : [
                    0.800000011920929,
                    0.800000011920929,
                    0.800000011920929,
                    1
                ],
                "metallicFactor" : 0,
                "roughnessFactor" : 0.4343145787715912
            }
        },
        {
            "doubleSided" : true,
            "name" : "Mat.1.1",
            "pbrMetallicRoughness" : {
                "baseColorFactor" : [
                    0.800000011920929,
                    0.800000011920929,
                    0.800000011920929,
                    1
                ],
                "metallicFactor" : 0,
                "roughnessFactor" : 0.4343145787715912
            }
        }
    ],
    "meshes" : [
        {
            "name" : "Mesh.005",
            "primitives" : [
                {
                    "attributes" : {
                        "POSITION" : 0,
                        "NORMAL" : 1,
                        "TEXCOORD_0" : 2,
                        "TEXCOORD_1" : 3
                    },
                    "indices" : 4,
                    "material" : 0
                }
            ]
        },
        {
            "name" : "Mesh.004",
            "primitives" : [
                {
                    "attributes" : {
                        "POSITION" : 5,
                        "NORMAL" : 6,
                        "TEXCOORD_0" : 7,
                        "TEXCOORD_1" : 8
                    },
                    "indices" : 9,
                    "material" : 1
                }
            ]
        },
        {
            "name" : "Mesh.002",
            "primitives" : [
                {
                    "attributes" : {
                        "POSITION" : 10,
                        "NORMAL" : 11
                    },
                    "indices" : 12,
                    "material" : 2
                }
            ]
        },
        {
            "name" : "Mesh.003",
            "primitives" : [
                {
                    "attributes" : {
                        "POSITION" : 13,
                        "NORMAL" : 14
                    },
                    "indices" : 15,
                    "material" : 2
                }
            ]
        },
        {
            "name" : "Mesh.006",
            "primitives" : [
                {
                    "attributes" : {
                        "POSITION" : 16,
                        "NORMAL" : 17,
                        "TEXCOORD_0" : 18,
                        "TEXCOORD_1" : 19
                    },
                    "indices" : 20,
                    "material" : 3
                }
            ]
        },
        {
            "name" : "Mesh",
            "primitives" : [
                {
                    "attributes" : {
                        "POSITION" : 21,
                        "NORMAL" : 22,
                        "TEXCOORD_0" : 23
                    },
                    "indices" : 24,
                    "material" : 4
                }
            ]
        },
        {
            "name" : "Mesh.001",
            "primitives" : [
                {
                    "attributes" : {
                        "POSITION" : 25,
                        "NORMAL" : 26,
                        "TEXCOORD_0" : 27
                    },
                    "indices" : 28,
                    "material" : 5
                }
            ]
        }
    ],
    "accessors" : [
        {
            "bufferView" : 0,
            "componentType" : 5126,
            "count" : 1894,
            "max" : [
                1880.26611328125,
                859.784423828125,
                2231.755859375
            ],
            "min" : [
                243.01998901367188,
                387.9015197753906,
                1991.8453369140625
            ],
            "type" : "VEC3"
        },
        {
            "bufferView" : 1,
            "componentType" : 5126,
            "count" : 1894,
            "type" : "VEC3"
        },
        {
            "bufferView" : 2,
            "componentType" : 5126,
            "count" : 1894,
            "type" : "VEC2"
        },
        {
            "bufferView" : 3,
            "componentType" : 5126,
            "count" : 1894,
            "type" : "VEC2"
        },
        {
            "bufferView" : 4,
            "componentType" : 5123,
            "count" : 9216,
            "type" : "SCALAR"
        },
        {
            "bufferView" : 5,
            "componentType" : 5126,
            "count" : 918,
            "max" : [
                1869.76025390625,
                448.1940002441406,
                2840.32177734375
            ],
            "min" : [
                253.52549743652344,
                261.17596435546875,
                2148.59423828125
            ],
            "type" : "VEC3"
        },
        {
            "bufferView" : 6,
            "componentType" : 5126,
            "count" : 918,
            "type" : "VEC3"
        },
        {
            "bufferView" : 7,
            "componentType" : 5126,
            "count" : 918,
            "type" : "VEC2"
        },
        {
            "bufferView" : 8,
            "componentType" : 5126,
            "count" : 918,
            "type" : "VEC2"
        },
        {
            "bufferView" : 9,
            "componentType" : 5123,
            "count" : 4608,
            "type" : "SCALAR"
        },
        {
            "bufferView" : 10,
            "componentType" : 5126,
            "count" : 1958,
            "max" : [
                1880.556884765625,
                221.75364685058594,
                2846.638671875
            ],
            "min" : [
                1817.1568603515625,
                -1.0103939386552074e-11,
                2051.306640625
            ],
            "type" : "VEC3"
        },
        {
            "bufferView" : 11,
            "componentType" : 5126,
            "count" : 1958,
            "type" : "VEC3"
        },
        {
            "bufferView" : 12,
            "componentType" : 5123,
            "count" : 11676,
            "type" : "SCALAR"
        },
        {
            "bufferView" : 13,
            "componentType" : 5126,
            "count" : 1958,
            "max" : [
                306.1284484863281,
                221.75364685058594,
                2846.638671875
            ],
            "min" : [
                242.7284393310547,
                -6.659085175636514e-12,
                2051.306640625
            ],
            "type" : "VEC3"
        },
        {
            "bufferView" : 14,
            "componentType" : 5126,
            "count" : 1958,
            "type" : "VEC3"
        },
        {
            "bufferView" : 15,
            "componentType" : 5123,
            "count" : 11676,
            "type" : "SCALAR"
        },
        {
            "bufferView" : 16,
            "componentType" : 5126,
            "count" : 1654,
            "max" : [
                2033.49658203125,
                668.9657592773438,
                2820.23876953125
            ],
            "min" : [
                89.78929138183594,
                183.4086151123047,
                1982.8775634765625
            ],
            "type" : "VEC3"
        },
        {
            "bufferView" : 17,
            "componentType" : 5126,
            "count" : 1654,
            "type" : "VEC3"
        },
        {
            "bufferView" : 18,
            "componentType" : 5126,
            "count" : 1654,
            "type" : "VEC2"
        },
        {
            "bufferView" : 19,
            "componentType" : 5126,
            "count" : 1654,
            "type" : "VEC2"
        },
        {
            "bufferView" : 20,
            "componentType" : 5123,
            "count" : 6576,
            "type" : "SCALAR"
        },
        {
            "bufferView" : 21,
            "componentType" : 5126,
            "count" : 27357,
            "max" : [
                241.1120147705078,
                107.4474868774414,
                234.5234375
            ],
            "min" : [
                -240.11221313476562,
                -108.17527770996094,
                -235.18841552734375
            ],
            "type" : "VEC3"
        },
        {
            "bufferView" : 22,
            "componentType" : 5126,
            "count" : 27357,
            "type" : "VEC3"
        },
        {
            "bufferView" : 23,
            "componentType" : 5126,
            "count" : 27357,
            "type" : "VEC2"
        },
        {
            "bufferView" : 24,
            "componentType" : 5123,
            "count" : 156888,
            "type" : "SCALAR"
        },
        {
            "bufferView" : 25,
            "componentType" : 5126,
            "count" : 29405,
            "max" : [
                242.4095001220703,
                107.54963684082031,
                234.03758239746094
            ],
            "min" : [
                -243.83567810058594,
                -107.52344512939453,
                -232.5345001220703
            ],
            "type" : "VEC3"
        },
        {
            "bufferView" : 26,
            "componentType" : 5126,
            "count" : 29405,
            "type" : "VEC3"
        },
        {
            "bufferView" : 27,
            "componentType" : 5126,
            "count" : 29405,
            "type" : "VEC2"
        },
        {
            "bufferView" : 28,
            "componentType" : 5123,
            "count" : 168960,
            "type" : "SCALAR"
        }
    ],
    "bufferViews" : [
        {
            "buffer" : 0,
            "byteLength" : 22728,
            "byteOffset" : 0
        },
        {
            "buffer" : 0,
            "byteLength" : 22728,
            "byteOffset" : 22728
        },
        {
            "buffer" : 0,
            "byteLength" : 15152,
            "byteOffset" : 45456
        },
        {
            "buffer" : 0,
            "byteLength" : 15152,
            "byteOffset" : 60608
        },
        {
            "buffer" : 0,
            "byteLength" : 18432,
            "byteOffset" : 75760
        },
        {
            "buffer" : 0,
            "byteLength" : 11016,
            "byteOffset" : 94192
        },
        {
            "buffer" : 0,
            "byteLength" : 11016,
            "byteOffset" : 105208
        },
        {
            "buffer" : 0,
            "byteLength" : 7344,
            "byteOffset" : 116224
        },
        {
            "buffer" : 0,
            "byteLength" : 7344,
            "byteOffset" : 123568
        },
        {
            "buffer" : 0,
            "byteLength" : 9216,
            "byteOffset" : 130912
        },
        {
            "buffer" : 0,
            "byteLength" : 23496,
            "byteOffset" : 140128
        },
        {
            "buffer" : 0,
            "byteLength" : 23496,
            "byteOffset" : 163624
        },
        {
            "buffer" : 0,
            "byteLength" : 23352,
            "byteOffset" : 187120
        },
        {
            "buffer" : 0,
            "byteLength" : 23496,
            "byteOffset" : 210472
        },
        {
            "buffer" : 0,
            "byteLength" : 23496,
            "byteOffset" : 233968
        },
        {
            "buffer" : 0,
            "byteLength" : 23352,
            "byteOffset" : 257464
        },
        {
            "buffer" : 0,
            "byteLength" : 19848,
            "byteOffset" : 280816
        },
        {
            "buffer" : 0,
            "byteLength" : 19848,
            "byteOffset" : 300664
        },
        {
            "buffer" : 0,
            "byteLength" : 13232,
            "byteOffset" : 320512
        },
        {
            "buffer" : 0,
            "byteLength" : 13232,
            "byteOffset" : 333744
        },
        {
            "buffer" : 0,
            "byteLength" : 13152,
            "byteOffset" : 346976
        },
        {
            "buffer" : 0,
            "byteLength" : 328284,
            "byteOffset" : 360128
        },
        {
            "buffer" : 0,
            "byteLength" : 328284,
            "byteOffset" : 688412
        },
        {
            "buffer" : 0,
            "byteLength" : 218856,
            "byteOffset" : 1016696
        },
        {
            "buffer" : 0,
            "byteLength" : 313776,
            "byteOffset" : 1235552
        },
        {
            "buffer" : 0,
            "byteLength" : 352860,
            "byteOffset" : 1549328
        },
        {
            "buffer" : 0,
            "byteLength" : 352860,
            "byteOffset" : 1902188
        },
        {
            "buffer" : 0,
            "byteLength" : 235240,
            "byteOffset" : 2255048
        },
        {
            "buffer" : 0,
            "byteLength" : 337920,
            "byteOffset" : 2490288
        }
    ],
    "buffers" : [
        {
            "byteLength" : 2828208,
            "uri" : "data:application/octet-stream;base64,"
        }
    ]
}
